<?xml version="1.0" encoding="UTF-8" standalone="no"?>
<svg
   xmlns:dc="http://purl.org/dc/elements/1.1/"
   xmlns:cc="http://creativecommons.org/ns#"
   xmlns:rdf="http://www.w3.org/1999/02/22-rdf-syntax-ns#"
   xmlns:svg="http://www.w3.org/2000/svg"
   xmlns="http://www.w3.org/2000/svg"
   xmlns:sodipodi="http://sodipodi.sourceforge.net/DTD/sodipodi-0.dtd"
   xmlns:inkscape="http://www.inkscape.org/namespaces/inkscape"
   inkscape:version="1.0 (4035a4f, 2020-05-01)"
   sodipodi:docname="Davidson College logo.svg"
   viewBox="0 0 478.32001 110.12"
   height="110.12"
   width="478.32001"
   xml:space="preserve"
   id="svg10"
   version="1.1"><metadata
     id="metadata16"><rdf:RDF><cc:Work
         rdf:about=""><dc:format>image/svg+xml</dc:format><dc:type
           rdf:resource="http://purl.org/dc/dcmitype/StillImage" /><dc:title></dc:title></cc:Work></rdf:RDF></metadata><defs
     id="defs14" /><sodipodi:namedview
     inkscape:current-layer="g18"
     inkscape:window-maximized="0"
     inkscape:window-y="23"
     inkscape:window-x="0"
     inkscape:cy="55.060001"
     inkscape:cx="239.16"
     inkscape:zoom="2.2934437"
     showgrid="false"
     id="namedview12"
     inkscape:window-height="480"
     inkscape:window-width="746"
     inkscape:pageshadow="2"
     inkscape:pageopacity="0"
     guidetolerance="10"
     gridtolerance="10"
     objecttolerance="10"
     borderopacity="1"
     bordercolor="#666666"
     pagecolor="#ffffff" /><g
     transform="matrix(1.3333333,0,0,-1.3333333,0,110.12)"
     inkscape:label="ink_ext_XXXXXX"
     inkscape:groupmode="layer"
     id="g18"><g
       transform="scale(0.1)"
       id="g20"><path
         id="path22"
         style="fill:#c1131e;fill-opacity:1;fill-rule:nonzero;stroke:none"
         d="M 33.9453,215 H 3513.95 V 5 H 33.9453 v 210 0" /><path
         id="path24"
         style="fill:none;stroke:#c1111e;stroke-width:10;stroke-linecap:butt;stroke-linejoin:miter;stroke-miterlimit:3.8637;stroke-dasharray:none;stroke-opacity:1"
         d="M 33.9453,215 H 3513.95 V 5 H 33.9453 v 210 z" /><path
         id="path26"
         style="fill:#ffffff;fill-opacity:1;fill-rule:nonzero;stroke:none"
         d="M 1109.31,7.36328 1005.36,111.309 1109.31,215.254 1213.25,111.309 1109.31,7.36328 v 0" /><path
         id="path28"
         style="fill:#000000;fill-opacity:1;fill-rule:evenodd;stroke:none"
         d="m 1026.07,461.758 16.1,-39.563 c 14.6,-35.757 30.65,-77.371 42.33,-120.437 h 36.51 c 13.13,44.531 29.2,86.133 46.71,127.746 l 13.33,32.254 h -34.13 l -25.18,-65.11 -25.3,65.11 h -70.37 z m -196.207,0 28.086,-70.215 c 7.293,-17.52 15.321,-36.492 15.321,-46.719 0,-8.758 -14.598,-13.867 -29.918,-14.597 l -34.309,-2.192 v -21.902 c 39.414,0.73 71.531,2.195 97.078,2.195 32.856,0 64.973,-1.465 97.089,-2.195 v 21.902 l -24.819,2.192 c -13.137,1.464 -21.164,10.945 -29.192,24.824 -8.769,15.32 -16.797,35.039 -23.371,49.629 l -24.312,57.078 h -71.653 z m -259.05,0 -42.09,-95.762 c -8.032,-18.984 -21.899,-34.305 -39.414,-35.769 l -27.012,-2.192 v -21.902 c 27.742,0.73 55.476,2.195 83.953,2.195 21.16,0 48.906,-1.465 83.945,-2.195 v 21.902 l -27.011,2.192 c -22.625,2.183 -35.039,5.105 -35.039,20.437 0,11.68 18.972,60.586 25.546,75.918 l 14.7,35.176 h -37.578 z m -504.3872,0 v -84.082 c 0,-19.707 -5.8399,-36.504 -18.2422,-43.067 L 25.5469,322.93 v -16.797 c 34.3164,0.73 66.4336,2.195 99.2771,2.195 32.852,0 64.973,-1.465 94.168,-2.195 64.973,-1.453 111.692,7.305 156.223,25.558 53.973,22.301 100.586,69.414 128.68,130 l -68.563,0.067 C 417.148,416.477 385.293,381.359 337.98,359.426 297.832,340.449 255.496,338.254 218.992,338.254 c -24.812,0 -62.769,0.73 -83.211,5.84 V 461.758 H 66.4258 v 0" /><path
         id="path30"
         style="fill:#000000;fill-opacity:1;fill-rule:evenodd;stroke:none"
         d="M 626.543,504.688 719.246,722.227 811.23,504.688 H 626.543 Z m 554.507,-42.93 113.69,275.07 c 14.6,35.039 24.09,51.094 39.42,52.559 l 21.89,2.187 v 21.895 c -26.27,-0.723 -51.82,-2.188 -78.83,-2.188 -27.01,0 -52.56,1.465 -78.84,2.188 v -21.895 l 37.96,-2.187 c 18.98,-1.465 34.31,-8.039 18.98,-47.453 l -108.4,-280.176 h 34.13 z m -84.61,0 -118.51,304.992 c -6.575,17.52 8.027,21.902 21.894,22.637 l 40.876,2.187 v 21.895 c -32.12,-0.723 -64.235,-2.188 -97.079,-2.188 -32.851,0 -64.969,1.465 -97.09,2.188 v -21.895 l 26.282,-2.187 c 12.414,-0.735 22.625,-6.574 32.121,-29.934 L 1026.07,461.758 h 70.37 z m -488.049,0 5.742,13.73 h 210.23 l 5.5,-13.73 h 71.653 L 749.18,819.309 H 725.82 C 706.113,766.75 681.289,712.734 658.66,661.633 L 570.813,461.758 h 37.578 z m -472.61,0 V 778.43 c 20.442,5.117 58.399,5.84 83.211,5.84 131.399,0 235.063,-32.844 235.063,-213.879 0,-40.489 -6.047,-77.032 -18.723,-108.614 l 68.563,-0.019 c 17.882,38.484 28.261,82.512 28.261,129.07 0,141.613 -111.687,226.293 -261.336,222.641 -32.121,-0.723 -78.84,-2.188 -127.011,-2.188 -48.184,0 -94.9027,1.465 -143.809,2.188 v -21.895 l 29.1992,-2.187 c 17.5196,-1.465 26.2774,-3.653 30.6641,-10.957 5.1055,-8.028 6.5625,-27.004 6.5625,-54.746 V 461.758 h 69.3552 v 0" /><path
         id="path32"
         style="fill:#000000;fill-opacity:1;fill-rule:evenodd;stroke:none"
         d="m 3075.7,395.93 c 0,-27.746 -1.46,-46.719 -6.57,-54.758 -4.37,-7.293 -13.13,-9.481 -30.65,-10.945 l -32.12,-2.192 v -21.902 c 29.2,0.73 58.4,2.195 84.68,2.195 29.19,0 55.47,-1.465 87.59,-2.195 v 21.902 l -32.12,2.192 c -17.52,1.464 -26.28,3.652 -30.66,10.945 -5.11,8.039 -6.57,27.012 -6.57,54.758 v 336.511 h 1.46 l 343.82,-427.031 65.7,-11.68 c -0.73,8.758 -2.19,18.243 -2.19,27.004 v 402.95 c 0,27.742 1.46,46.718 6.57,54.746 4.38,7.304 13.14,9.492 30.66,10.957 l 32.12,2.187 v 21.895 c -32.12,-0.723 -58.4,-2.188 -87.6,-2.188 -26.28,0 -55.47,1.465 -84.67,2.188 v -21.895 l 32.12,-2.187 c 17.52,-1.465 26.27,-3.653 30.65,-10.957 5.11,-8.028 6.57,-27.004 6.57,-54.746 V 382.781 h -2.19 l -348.93,430.688 c -13.14,-0.723 -26.28,-2.188 -39.41,-2.188 -26.28,0 -55.48,1.465 -87.6,2.188 v -21.895 l 32.12,-2.187 c 17.52,-1.465 26.28,-3.653 30.65,-10.957 5.11,-8.028 6.57,-27.004 6.57,-54.746 v -327.754 0" /><path
         id="path34"
         style="fill:#000000;fill-opacity:1;fill-rule:evenodd;stroke:none"
         d="m 2745.1,795.227 c 146.64,0 216.8,-97.09 216.8,-241.633 0,-134.317 -63.85,-229.207 -195.51,-229.207 -156.1,0 -220.75,134.312 -220.75,262.058 0,119.715 62.29,208.782 199.46,208.782 z m -3.94,-501.497 c 172.65,0 305.1,125.547 305.1,282.5 0,162.051 -119.83,249.649 -288.55,249.649 -182.9,0 -296.42,-116.063 -296.42,-266.445 0,-163.504 119.83,-265.704 279.87,-265.704 v 0" /><path
         id="path36"
         style="fill:#000000;fill-opacity:1;fill-rule:evenodd;stroke:none"
         d="m 2400.92,692.297 c 0,34.305 2.92,65.691 10.22,102.93 -29.93,11.679 -73.73,30.652 -132.13,30.652 -87.59,0 -186.87,-51.824 -186.87,-164.973 0,-75.918 45.25,-111.687 159.86,-124.832 74.46,-8.758 128.48,-28.465 128.48,-97.812 0,-72.266 -64.97,-112.41 -130.67,-112.41 -57.66,0 -115.34,27.734 -118.98,58.394 l -5.84,48.906 h -23.36 c 0.72,-34.304 0.72,-73.726 -5.12,-111.687 24.1,-11.68 73.73,-27.735 124.84,-27.735 108.76,0 220.45,59.856 220.45,184.676 0,83.227 -64.97,108.774 -167.89,119.719 -91.25,10.227 -120.45,40.879 -120.45,90.52 0,72.265 56.93,106.582 108.03,106.582 28.47,0 59.14,-5.118 79.57,-17.52 27.01,-16.797 29.93,-24.094 32.12,-43.801 l 4.38,-41.609 h 23.36 z M 1674.1,778.43 c 20.44,5.117 58.4,5.84 83.22,5.84 131.4,0 235.06,-32.844 235.06,-213.879 0,-98.555 -35.77,-173.743 -116.07,-210.965 -40.15,-18.977 -82.49,-21.172 -118.99,-21.172 -24.82,0 -62.78,0.73 -83.22,5.84 V 778.43 Z m -69.34,-400.754 c 0,-19.707 -5.84,-36.504 -18.26,-43.067 l -22.62,-11.679 v -16.797 c 34.3,0.73 66.42,2.195 99.27,2.195 32.86,0 64.98,-1.465 94.17,-2.195 64.97,-1.453 111.69,7.305 156.22,25.558 88.33,36.493 156.95,139.422 156.95,259.137 0,141.613 -111.69,226.293 -261.34,222.641 -32.12,-0.723 -78.84,-2.188 -127.01,-2.188 -48.18,0 -94.9,1.465 -143.81,2.188 v -21.895 l 29.2,-2.187 c 17.52,-1.465 26.28,-3.653 30.65,-10.957 5.12,-8.028 6.58,-27.004 6.58,-54.746 V 377.676 Z m -158.14,346.008 c 0,27.742 1.46,46.718 6.56,54.746 4.39,7.304 13.15,10.222 30.67,10.957 l 35.04,2.187 v 21.895 c -37.96,-1.457 -72.27,-2.188 -105.85,-2.188 -35.77,0 -70.08,0.731 -108.04,2.188 v -21.895 l 35.04,-2.187 c 17.52,-0.735 26.28,-3.653 30.66,-10.957 5.11,-8.028 6.57,-27.004 6.57,-54.746 V 395.93 c 0,-27.746 -1.46,-46.719 -6.57,-54.758 -4.38,-7.293 -13.14,-10.215 -30.66,-10.945 L 1305,328.035 v -21.902 c 37.96,1.465 72.27,2.195 108.04,2.195 33.58,0 67.89,-0.73 105.85,-2.195 v 21.902 l -35.04,2.192 c -17.52,0.73 -26.28,3.652 -30.67,10.945 -5.1,8.039 -6.56,27.012 -6.56,54.758 v 327.754 0" /></g></g></svg>
